<svg xmlns="http://www.w3.org/2000/svg" width="800" height="480" viewBox="0 0 800 480">
  <defs>
    <linearGradient id="bg" x1="0%" y1="0%" x2="100%" y2="100%">
      <stop offset="0%" style="stop-color:#1e1e2e"/>
      <stop offset="100%" style="stop-color:#3b1f4e"/>
    </linearGradient>
  </defs>
  <rect width="800" height="480" fill="url(#bg)"/>
  <rect x="60" y="60" width="680" height="360" rx="16" fill="#0a0a12" opacity="0.5"/>
  <rect x="90" y="100" width="300" height="140" rx="8" fill="#1e1e2e" stroke="#c084fc" stroke-width="1" opacity="0.4"/>
  <rect x="90" y="100" width="300" height="30" rx="8" fill="#1e1e2e"/>
  <text x="110" y="120" font-family="monospace" font-size="11" fill="#c084fc" opacity="0.5">Analytics Overview</text>
  <line x1="110" y1="200" x2="160" y2="160" stroke="#c084fc" stroke-width="2" opacity="0.3"/>
  <line x1="160" y1="160" x2="210" y2="190" stroke="#c084fc" stroke-width="2" opacity="0.3"/>
  <line x1="210" y1="190" x2="260" y2="140" stroke="#c084fc" stroke-width="2" opacity="0.3"/>
  <line x1="260" y1="140" x2="310" y2="170" stroke="#c084fc" stroke-width="2" opacity="0.3"/>
  <line x1="310" y1="170" x2="360" y2="120" stroke="#c084fc" stroke-width="2" opacity="0.3"/>
  <rect x="420" y="100" width="300" height="140" rx="8" fill="#1e1e2e" stroke="#a78bfa" stroke-width="1" opacity="0.3"/>
  <text x="440" y="130" font-family="monospace" font-size="11" fill="#a78bfa" opacity="0.4">Revenue Chart</text>
  <rect x="440" y="200" width="40" height="30" rx="3" fill="#a78bfa" opacity="0.2"/>
  <rect x="490" y="180" width="40" height="50" rx="3" fill="#a78bfa" opacity="0.25"/>
  <rect x="540" y="160" width="40" height="70" rx="3" fill="#a78bfa" opacity="0.3"/>
  <rect x="590" y="175" width="40" height="55" rx="3" fill="#a78bfa" opacity="0.25"/>
  <rect x="640" y="150" width="40" height="80" rx="3" fill="#a78bfa" opacity="0.35"/>
  <text x="400" y="410" font-family="system-ui,sans-serif" font-size="22" fill="#e2e8f0" font-weight="600" text-anchor="middle">Analytics Dashboard</text>
</svg>
